# Blender v2.78 (sub 0) OBJ File: ''
# www.blender.org
mtllib sphere.mtl
o Cube_Cube.001
v -50.000000 -0.200000 50.000000
v -50.000000 0.200000 50.000000
v -50.000000 -0.200000 -50.000000
v -50.000000 0.200000 -50.000000
v 50.000000 -0.200000 50.000000
v 50.000000 0.200000 50.000000
v 50.000000 -0.200000 -50.000000
v 50.000000 0.200000 -50.000000
v -50.000000 -0.200000 -50.000000
v -50.000000 -0.200000 50.000000
v -50.000000 0.200000 50.000000
v -50.000000 0.200000 -50.000000
v 50.000000 -0.200000 -50.000000
v 50.000000 0.200000 -50.000000
v 50.000000 -0.200000 50.000000
v 50.000000 0.200000 50.000000
v -50.000000 -0.200000 -50.000000
v -50.000000 -0.200000 50.000000
v -50.000000 0.200000 50.000000
v -50.000000 0.200000 -50.000000
v 50.000000 -0.200000 -50.000000
v 50.000000 0.200000 -50.000000
v 50.000000 -0.200000 50.000000
v 50.000000 0.200000 50.000000
v -50.000000 0.200000 -51.000000
v -50.000000 -0.200000 -51.000000
v 50.000000 -0.200000 -51.000000
v 50.000000 0.200000 -51.000000
v -51.000000 -0.200000 -50.000000
v -51.000000 -0.200000 50.000000
v -51.000000 0.200000 50.000000
v -51.000000 0.200000 -50.000000
v -50.000000 -0.200000 50.000000
v -50.000000 0.200000 50.000000
v 50.000000 0.200000 50.000000
v 50.000000 -0.200000 50.000000
v -50.000000 -0.200000 51.000000
v -50.000000 0.200000 51.000000
v 50.000000 0.200000 51.000000
v 50.000000 -0.200000 51.000000
v 51.000000 0.200000 -50.000000
v 51.000000 -0.200000 -50.000000
v 51.000000 -0.200000 50.000000
v 51.000000 0.200000 50.000000
v -50.000000 40.200001 50.000000
v -50.000000 40.200001 -50.000000
v 50.000000 40.200001 -50.000000
v 50.000000 40.200001 50.000000
v -50.000000 40.200001 -51.000000
v 50.000000 40.200001 -51.000000
v -51.000000 40.200001 50.000000
v -51.000000 40.200001 -50.000000
v 50.000000 40.200001 50.000000
v -50.000000 40.200001 50.000000
v 50.000000 40.200001 51.000000
v -50.000000 40.200001 51.000000
v 51.000000 40.200001 -50.000000
v 51.000000 40.200001 50.000000
v -50.000000 41.200001 50.000000
v -50.000000 41.200001 -50.000000
v -51.000000 41.200001 50.000000
v -51.000000 41.200001 -50.000000
v 50.000011 40.200001 50.000000
v 50.000011 40.200001 -50.000000
v 50.000011 41.200001 50.000000
v 50.000011 41.200001 -50.000000
vt 0.0000 0.0000
vt 0.0000 0.0000
vt 0.0000 0.0000
vt 0.0000 0.0000
vt 0.0000 0.0000
vt 0.0000 0.0000
vt 0.0000 0.0000
vt 0.0000 0.0000
vt 0.0000 0.0000
vt 0.0000 0.0000
vt 0.0000 0.0000
vt 0.0000 0.0000
vt 0.0000 0.0000
vt 0.0000 0.0000
vt 0.0000 0.0000
vt 0.0000 0.0000
vt 0.9946 0.0629
vt 0.9043 0.0629
vt 0.9043 0.0532
vt 0.9946 0.0532
vt 0.9946 0.0436
vt 0.9946 0.0532
vt 0.9043 0.0532
vt 0.9043 0.0436
vt 0.0000 0.0000
vt 0.0000 0.0000
vt 0.0000 0.0000
vt 0.0000 0.0000
vt 0.0000 0.0000
vt 0.0000 0.0000
vt 0.0000 0.0000
vt 0.0000 0.0000
vt 0.4531 0.0097
vt 0.5433 0.0097
vt 0.5433 0.9758
vt 0.4531 0.9758
vt 0.9991 0.0097
vt 0.9991 0.0000
vt 1.0000 0.0000
vt 1.0000 0.0097
vt 0.6336 0.0000
vt 0.7238 0.0000
vt 0.7238 0.9662
vt 0.6336 0.9662
vt 0.0000 0.0000
vt 0.0000 0.0000
vt 0.3628 0.0000
vt 0.3628 0.0097
vt 0.2726 0.0097
vt 0.2726 0.0000
vt 0.9043 0.0919
vt 0.9043 0.0822
vt 0.9052 0.0822
vt 0.9052 0.0919
vt 0.8141 0.9662
vt 0.7238 0.9662
vt 0.7238 0.0000
vt 0.8141 0.0000
vt 0.9946 0.9758
vt 0.9946 0.9662
vt 0.9955 0.9662
vt 0.9955 0.9758
vt 0.2726 0.0000
vt 0.2726 0.0097
vt 0.1823 0.0097
vt 0.1823 0.0000
vt 0.9070 0.0629
vt 0.9070 0.0726
vt 0.9061 0.0726
vt 0.9061 0.0629
vt 0.1814 0.0097
vt 0.1814 0.0000
vt 0.0903 1.0000
vt 0.0903 0.9903
vt 0.0912 0.9903
vt 0.0912 1.0000
vt 0.9043 0.0822
vt 0.9043 0.0726
vt 0.9052 0.0726
vt 0.9052 0.0822
vt 0.0000 0.0000
vt 0.0000 0.0000
vt 0.3628 0.9758
vt 0.3628 0.9662
vt 0.4531 0.9662
vt 0.4531 0.9758
vt 0.9964 0.9662
vt 0.9964 0.9758
vt 0.9955 0.9758
vt 0.9955 0.9662
vt 0.2726 0.9758
vt 0.1823 0.9758
vt 0.9991 0.0000
vt 0.9991 0.0097
vt 0.9982 0.0097
vt 0.9982 0.0000
vt 0.5433 0.0000
vt 0.4531 0.0000
vt 0.9973 0.9758
vt 0.9973 0.9662
vt 0.9982 0.9662
vt 0.9982 0.9758
vt 0.9973 0.9662
vt 0.9973 0.9758
vt 0.9964 0.9758
vt 0.9964 0.9662
vt 0.9052 0.0919
vt 0.9052 0.0822
vt 0.9061 0.0822
vt 0.9061 0.0919
vt 0.1814 0.9758
vt 0.1814 1.0000
vt 0.0912 1.0000
vt 0.0912 0.9758
vt 0.9052 0.0822
vt 0.9052 0.0726
vt 0.9061 0.0726
vt 0.9061 0.0822
vt 0.9052 0.0629
vt 0.9052 0.0726
vt 0.9043 0.0726
vt 0.9043 0.0629
vt 0.9061 0.0629
vt 0.9061 0.0726
vt 0.9052 0.0726
vt 0.9052 0.0629
vt 0.3628 0.0000
vt 0.4531 0.0000
vt 1.0000 0.9758
vt 0.9991 0.9758
vt 0.0903 0.0242
vt 0.0912 0.0242
vt 0.9964 0.0000
vt 0.9973 0.0000
vt 0.6336 0.9662
vt 0.5433 0.9662
vt 0.5433 0.0000
vt 0.6336 0.0000
vt 0.9946 0.0000
vt 0.9955 0.0000
vt 0.9973 0.0000
vt 0.9982 0.0000
vt 0.9955 0.0000
vt 0.9964 0.0000
vt 0.8141 0.0000
vt 0.9043 0.0000
vt 0.9043 0.9662
vt 0.8141 0.9662
vt 0.9991 0.9758
vt 0.9982 0.9758
vt 0.3628 0.9758
vt 0.2726 0.9758
vt 0.9043 0.0338
vt 0.9946 0.0338
vt 0.9946 0.0339
vt 0.9043 0.0339
vt 0.1823 1.0000
vt 0.0903 0.0000
vt 0.0912 0.0000
vt 0.2726 1.0000
vt 0.9043 0.0000
vt 0.9946 0.0000
vt 0.9946 0.0242
vt 0.9043 0.0242
vt 0.0000 0.0242
vt 0.0000 0.0000
vt 0.9946 0.0436
vt 0.9043 0.0436
vt 0.9043 0.0339
vt 0.9946 0.0339
vn 0.0000 0.0000 1.0000
vn 0.0000 -1.0000 0.0000
vn 0.0000 1.0000 0.0000
vn 1.0000 0.0000 0.0000
vn 0.0000 0.0000 -1.0000
vn -1.0000 0.0000 0.0000
usemtl Material.002
s off
f 4/1/1 8/2/1 14/3/1 12/4/1
f 5/5/1 7/6/1 13/7/1 15/8/1
f 3/9/1 1/10/1 10/11/1 9/12/1
f 6/13/1 2/14/1 11/15/1 16/16/1
f 3/17/2 7/18/2 5/19/2 1/20/2
f 8/21/3 4/22/3 2/23/3 6/24/3
f 11/15/1 12/4/1 20/25/1 19/26/1
f 13/7/1 9/12/1 17/27/1 21/28/1
f 14/3/1 16/16/1 24/29/1 22/30/1
f 10/11/1 15/8/1 23/31/1 18/32/1
f 1/10/1 5/5/1 15/8/1 10/11/1
f 8/2/1 6/13/1 16/16/1 14/3/1
f 7/6/1 3/9/1 9/12/1 13/7/1
f 2/14/1 4/1/1 12/4/1 11/15/1
f 44/33/4 41/34/4 57/35/4 58/36/4
f 22/37/4 21/38/4 27/39/4 28/40/4
f 35/41/5 34/42/5 54/43/5 53/44/5
f 24/29/1 19/26/1 34/45/1 35/46/1
f 16/16/1 11/15/1 19/26/1 24/29/1
f 9/12/1 10/11/1 18/32/1 17/27/1
f 15/8/1 13/7/1 21/28/1 23/31/1
f 12/4/1 14/3/1 22/30/1 20/25/1
f 26/47/5 25/48/5 28/49/5 27/50/5
f 21/51/2 17/52/2 26/53/2 27/54/2
f 20/55/1 22/56/1 47/57/1 46/58/1
f 17/59/6 20/60/6 25/61/6 26/62/6
f 30/63/6 31/64/6 32/65/6 29/66/6
f 17/67/2 18/68/2 30/69/2 29/70/2
f 20/71/5 17/72/5 29/66/5 32/65/5
f 18/73/1 19/74/1 31/75/1 30/76/1
f 33/77/2 36/78/2 40/79/2 37/80/2
f 23/31/1 24/29/1 35/46/1 36/81/1
f 19/26/1 18/32/1 33/82/1 34/45/1
f 18/32/1 23/31/1 36/81/1 33/82/1
f 40/83/1 39/84/1 38/85/1 37/86/1
f 34/87/6 33/88/6 37/89/6 38/90/6
f 32/65/6 31/64/6 51/91/6 52/92/6
f 36/93/4 35/94/4 39/95/4 40/96/4
f 42/97/4 41/34/4 44/33/4 43/98/4
f 21/99/5 22/100/5 41/101/5 42/102/5
f 24/103/1 23/104/1 43/105/1 44/106/1
f 23/107/2 21/108/2 42/109/2 43/110/2
f 46/111/5 60/112/5 66/113/5 64/114/5
f 47/115/3 48/116/3 58/117/3 57/118/3
f 46/119/3 47/120/3 50/121/3 49/122/3
f 53/123/3 54/124/3 56/125/3 55/126/3
f 20/71/5 32/65/5 52/92/5 46/111/5
f 38/85/1 39/84/1 55/127/1 56/128/1
f 22/37/4 28/40/4 50/129/4 47/130/4
f 31/75/1 19/74/1 45/131/1 51/132/1
f 24/103/1 44/106/1 58/133/1 48/134/1
f 22/135/6 24/136/6 48/137/6 47/138/6
f 25/61/6 20/60/6 46/139/6 49/140/6
f 41/101/5 22/100/5 47/141/5 57/142/5
f 34/87/6 38/90/6 56/143/6 54/144/6
f 19/145/4 20/146/4 46/147/4 45/148/4
f 39/95/4 35/94/4 53/149/4 55/150/4
f 28/49/5 25/48/5 49/151/5 50/152/5
f 59/153/3 60/154/3 62/155/3 61/156/3
f 46/111/5 52/92/5 62/157/5 60/112/5
f 51/132/1 45/131/1 59/158/1 61/159/1
f 52/92/6 51/91/6 61/160/6 62/157/6
f 63/161/4 64/162/4 66/163/4 65/164/4
f 60/154/3 59/153/3 65/164/3 66/163/3
f 59/158/1 45/131/1 63/165/1 65/166/1
f 45/167/2 46/168/2 64/169/2 63/170/2
